<svg xmlns="http://www.w3.org/2000/svg" width="27" height="17" fill="none" xmlns:v="https://vecta.io/nano"><path d="M26.67 16.338H.33a.33.33 0 0 0-.233.097c-.062.062-.096.146-.096.234s.035.172.096.234S.242 17 .33 17h26.34a.33.33 0 0 0 .233-.097c.062-.062.096-.146.096-.234s-.035-.172-.096-.234a.33.33 0 0 0-.233-.097h0zM1.227 14.592h24.546a.33.33 0 0 0 .233-.097c.062-.062.096-.146.096-.234s-.035-.172-.096-.234-.146-.097-.233-.097h-.245c-.034-2.958-1.284-5.734-3.53-7.827-1.9-1.78-4.348-2.888-6.984-3.195.468-.247.86-.617 1.133-1.07s.418-.975.42-1.506c0-.088-.035-.172-.096-.234A.33.33 0 0 0 16.237 0h-5.13a.33.33 0 0 0-.233.097c-.062.062-.096.146-.096.234 0 .52.14 1.03.402 1.48s.64.817 1.094 1.068c-2.746.258-5.292 1.38-7.27 3.225-2.245 2.093-3.495 4.868-3.53 7.827h-.245c-.087 0-.17.035-.233.097s-.096.146-.096.234.035.172.096.234.146.097.233.097h0zM4.81 8.817c.69-1.268 1.84-2.273 3.238-2.833.08-.032.172-.03.252.003a.33.33 0 0 1 .176.182c.032.082.03.173-.003.253a.33.33 0 0 1-.181.177C7.037 7.1 6.006 8.002 5.388 9.135a.33.33 0 0 1-.197.157c-.084.024-.173.014-.25-.028a.33.33 0 0 1-.158-.197c-.025-.084-.015-.174.026-.25h0z" fill="#000"/></svg>