<svg xmlns="http://www.w3.org/2000/svg" width="25" height="21" fill="none" xmlns:v="https://vecta.io/nano"><path d="M12.843 10.85l.75.323a.33.33 0 0 0 .131.027c.147 0 .286-.1.342-.266.035-.103.032-.217-.008-.317a.39.39 0 0 0-.204-.218l-.75-.323c-.09-.04-.19-.036-.28.01s-.158.128-.192.23-.032.216.008.317a.39.39 0 0 0 .204.218h0zm10.82 1.462h-.2c.35-.257.65-.572.838-.958.212-.44.253-.916.122-1.417-.12-.46-.353-.815-.69-1.054.165-.473.25-.977.25-1.486 0-2.228-1.603-4.04-3.574-4.04a3.21 3.21 0 0 0-1.367.307 3.57 3.57 0 0 0-1.158.876L16.192 1.8a.39.39 0 0 0-.111-.117.34.34 0 0 0-.144-.056c-.103-.015-.206.02-.285.097-.46.448-.833.993-1.1 1.6-.377.04-.73.227-1.006.422-.063-.662-.212-1.615-.567-2.386-.093-.203-.314-.282-.494-.176a.38.38 0 0 0-.111.101c-.03.042-.054.1-.07.142s-.02.106-.016.16.018.107.04.155c.514 1.117.53 2.792.53 2.808 0 .082.022.162.063.23a.38.38 0 0 0 .165.151.33.33 0 0 0 .279-.001c.045-.02.085-.052.12-.1a2.83 2.83 0 0 1 .747-.574c-.048.195-.087.394-.114.597-.135.99-.012 2.006.352 2.92l-3.286 1.662C10.437 7.98 9.662 7.29 8.878 7.4a1.45 1.45 0 0 0-.543.172c-.6-1.063-.82-1.89-.617-2.238.076-.13.31-.528 1.012-.35.417.106.77.356.773.358.06.044.132.067.204.065a.34.34 0 0 0 .202-.074.41.41 0 0 0 .132-.188c.026-.076.032-.16.017-.24-.05-.258-.11-.7-.135-1.203l-.002-.035c-.037-.81.024-1.758.383-2.322.187-.294.44-.457.776-.5a1.1 1.1 0 0 1 .295.001c.2.03.384-.13.4-.358.012-.11-.014-.22-.073-.306a.36.36 0 0 0-.243-.158 1.75 1.75 0 0 0-.468-.003 1.73 1.73 0 0 0-1.29.839c-.304.477-.477 1.14-.52 1.975-.57-.416-1.234-.64-1.93-.64-1.97 0-3.574 1.812-3.574 4.04 0 .784.2 1.54.574 2.195a3.02 3.02 0 0 0 .007.671c-.713-.23-1.85-.475-2.656-.04-.434.234-.724.625-.865 1.162-.24.922.122 1.607.63 2.094h-.038C.6 12.312 0 13 0 13.822v.09c0 .833.6 1.5 1.336 1.5h1.21l2.937 3.235c-.213.254-.344.596-.344.972v.012c0 .762.55 1.36 1.252 1.36H18.61c.702 0 1.252-.597 1.252-1.36v-.012c0-.376-.13-.72-.344-.972l2.937-3.235h1.21c.736 0 1.336-.677 1.336-1.5v-.09c0-.833-.6-1.5-1.336-1.5h0zm-.005-1.355c-.246.51-.945.986-1.918 1.308-.033.01-.063.027-.1.046h-6.808c.703-1.19.94-2.64.652-4.035.26-.257.498-.374.713-.346.36.046.435.206.46.26.155.33-.057 1-.184 1.273-.043.09-.054.197-.03.297s.078.187.154.243.168.08.26.063a.36.36 0 0 0 .229-.151c.596-.843 1.518-1.853 2.165-2.204.028-.01.055-.023.08-.04.185-.087.343-.113.46-.057.18.088.42.276.396.884-.016.415-.15.793-.15.796-.028.076-.035.16-.02.24s.05.154.1.212.116.097.187.113.144.008.21-.023c.492-.23 1.942-.734 2.724-.312.242.13.398.343.48.65a1.1 1.1 0 0 1-.063.786h0zm-11.217 1.058l-.327-.828a.42.42 0 0 0-.082-.133c-.035-.038-.076-.067-.12-.087s-.093-.03-.142-.028a.33.33 0 0 0-.14.036.37.37 0 0 0-.117.094c-.033.04-.06.087-.076.138a.46.46 0 0 0-.023.16c.002.055.013.108.033.158l.31.786h-1.154l.134-.398c.017-.05.025-.105.024-.16s-.012-.108-.032-.157a.42.42 0 0 0-.083-.132c-.035-.037-.076-.066-.12-.086a.33.33 0 0 0-.141-.027c-.048.002-.095.014-.14.036a.37.37 0 0 0-.117.094c-.033.04-.06.086-.076.137l-.234.693H8.117l-.212-.303 6.89-3.485c.243 1.292-.05 2.676-.806 3.704-.02.027-.035.055-.048.085h-1.484a.46.46 0 0 0-.014-.297l.001.001zM19.155 6.6c.253-.51.73-.83 1.255-.83.794 0 1.44.73 1.44 1.628 0 .494-.195.956-.536 1.267a.39.39 0 0 0-.038.04l-.373.1c.084-.725-.042-1.582-.817-1.96-.236-.115-.5-.127-.796-.035l-.137-.22zM20.4 4.185c1.567 0 2.842 1.44 2.842 3.212 0 .416-.07.816-.204 1.194-.23-.05-.472-.064-.713-.054a2.71 2.71 0 0 0 .248-1.14c0-1.354-.975-2.456-2.173-2.456-.328 0-.65.083-.947.244a2.24 2.24 0 0 0-.757.687l-.395-.64c.54-.667 1.296-1.047 2.1-1.047h0zM15.836 2.67l2.778 4.502c-.273.19-.566.45-.883.775l-.3.31c-.02-.156-.058-.31-.125-.452-.128-.274-.4-.618-1.026-.696-.376-.048-.752.088-1.123.404-.327-.782-.444-1.662-.326-2.526.12-.872.468-1.68.995-2.318h0zm-8.022 5.5a1.54 1.54 0 0 0-.087.36l-.3-.31c-.506-.52-.954-.87-1.35-1.047l-.01-.02a1.77 1.77 0 0 1-.258-.931c0-.898.646-1.628 1.44-1.628l.037.002a1.79 1.79 0 0 0-.188.266c-.408.697-.176 1.78.707 3.31h0zM4.416 6.23c0-1.772 1.275-3.212 2.842-3.212.73 0 1.413.307 1.942.867l.032.393c-.275-.107-.58-.18-.882-.17-.33-.218-.705-.332-1.09-.332-1.198 0-2.173 1.102-2.173 2.456a2.74 2.74 0 0 0 .135.853.94.94 0 0 0-.138.054 1.38 1.38 0 0 0-.444.338 3.57 3.57 0 0 1-.221-1.245h0zm-1.66 6.052c-1.056-.5-1.496-1.114-1.3-1.83.08-.306.236-.52.477-.65.78-.422 2.23.082 2.724.31.067.03.14.04.21.023s.136-.055.187-.113.086-.13.1-.21.008-.163-.02-.24c-.001-.004-.136-.382-.152-.797-.023-.607.215-.795.396-.884.522-.255 1.905 1.173 2.703 2.3.118.167.328.204.486.088s.21-.35.124-.54c-.127-.273-.34-.943-.184-1.273.025-.053.1-.213.46-.26.44-.056.998.512 1.55 1.57L7.214 11.45c-.047.024-.09.058-.123.1a.43.43 0 0 0-.076.149.46.46 0 0 0 .031.334l.153.277h-4.39c-.016-.012-.034-.022-.052-.03h-.001zm16.37 7.36c0 .35-.26.532-.52.532H6.39c-.258 0-.52-.182-.52-.532v-.012a.63.63 0 0 1 .152-.415.49.49 0 0 1 .367-.172h12.217a.49.49 0 0 1 .367.172.63.63 0 0 1 .152.415l-.001.012zm5.14-5.73c0 .376-.27.682-.603.682H7.006c-.097 0-.2.044-.26.12s-.107.183-.107.293.04.215.107.293.162.12.26.12h14.398l-2.535 2.793H6.13L3.596 15.42H5.54c.097 0 .2-.044.26-.12s.107-.183.107-.293-.04-.215-.107-.293-.162-.12-.26-.12H1.336a.57.57 0 0 1-.426-.2.73.73 0 0 1-.177-.482v-.09c0-.376.27-.682.603-.682h22.328c.333 0 .603.306.603.682v.09zm-8.244-7.537h.015l.69-.03a.35.35 0 0 0 .255-.133c.066-.08.1-.188.097-.297-.008-.228-.178-.405-.38-.397l-.69.03a.35.35 0 0 0-.252.13c-.066.08-.1.184-.1.292a.44.44 0 0 0 .11.287c.068.076.16.118.256.12h0z" fill="#000"/></svg>