<svg width="1074" height="645" viewBox="0 0 1074 645" fill="none" xmlns="http://www.w3.org/2000/svg">
<path fill-rule="evenodd" clip-rule="evenodd" d="M371.394 324.453C359.027 358.603 345.26 396.238 329.914 437.698C206.474 771.2 515.167 630.178 771.671 501.462C899.718 525.842 1013.08 513.43 1056.58 437.698C1121.37 324.914 987.714 392.41 815.68 479.285C801.249 486.573 786.548 493.996 771.671 501.462C631.803 474.831 474.41 404.303 371.394 324.453Z" fill="#C62042"/>
<path d="M452.794 93.2928L453.263 91.9269C464.068 60.4454 471.369 39.2003 476.751 25.2046C187.673 75.9471 223.488 209.808 371.394 324.453C410.786 215.682 435.981 142.275 452.794 93.2928Z" fill="#C62042"/>
<path d="M372.651 321.488C531.558 308.419 703.078 289.437 816.37 272.602C761.621 153.999 746.95 -6.86794 645.088 132.021C596.943 197.667 486.496 263.848 372.651 321.488Z" fill="#239346"/>
<path d="M898.123 368.78C1035.49 426.914 1042.71 236.66 843.901 268.369C835.172 269.761 825.98 271.174 816.37 272.602C836.28 315.734 861.491 353.277 898.123 368.78Z" fill="#239346"/>
<path d="M87.2043 495.615C177.381 488.185 168.551 462.958 131.733 434.739C37.0352 478.703 -5.38932 503.245 87.2043 495.615Z" fill="#239346"/>
<path d="M372.651 321.488C238.024 332.561 112.45 339.389 39.0071 337.072C-65.1609 333.785 71.1609 388.312 131.733 434.739C196.434 404.7 285.537 365.595 372.651 321.488Z" fill="#239346"/>
</svg>
