<svg xmlns="http://www.w3.org/2000/svg" width="25" height="25" fill="none" xmlns:v="https://vecta.io/nano"><g clip-path="url(#A)"><path d="M1.9 12.038c.353-1.257 1.6-2.2 3.086-2.2.33 0 .65.046.952.133a1.3 1.3 0 0 1-.037-.298 1.3 1.3 0 0 1 2.5-.505c1.187-1.634 3.228-2.718 5.545-2.718 1.93 0 3.71.742 4.948 2.003a1.3 1.3 0 0 1 2.567.29c0 .485-.268.902-.66 1.126.898.42 1.548 1.215 1.703 2.16h1.776c.192 0 .375.076.51.212s.212.32.212.51c0 .4-.323.723-.722.723H.722a.72.72 0 0 1-.511-.212A.72.72 0 0 1 0 12.76a.72.72 0 0 1 .722-.722H1.9zm18.385 0c-.18-.286-.53-.482-.934-.482s-.753.196-.934.482h1.868zm-2.803 0c.212-.773.966-1.35 1.87-1.35s1.658.576 1.87 1.35h.4c-.226-.92-1.156-1.612-2.268-1.612s-2.04.692-2.268 1.612h.4zm-2.602 0c-.18-.286-.53-.482-.934-.482s-.753.196-.934.482h1.868zm-2.803 0c.212-.773.966-1.35 1.87-1.35s1.658.576 1.87 1.35h.385a2.73 2.73 0 0 1 .066-.295l-.04.01c-.212-.957-1.17-1.652-2.28-1.652-1.24 0-2.246.86-2.31 1.938h.443zm-1.315 0c.063-1.556 1.465-2.805 3.184-2.805 1.2 0 2.267.623 2.81 1.552.103-.13.215-.257.34-.37-.673-.968-1.865-1.57-3.15-1.57-2.006 0-3.64 1.424-3.696 3.193h.513zm-1.38 0c.054-2.247 2.078-4.06 4.563-4.06 1.567 0 3.03.745 3.863 1.945.287-.145.6-.25.932-.3-1.063-1.424-2.837-2.286-4.794-2.286-3.017 0-5.496 2.076-5.744 4.7h1.18v.001h0zm-1.862-1.04l.018-.063-.056.018.038.046v-.001zm-1.886 1.04a1.17 1.17 0 0 0-.647-.193c-.245 0-.468.074-.647.193h1.294zm-2.412 0c.3-.623.977-1.06 1.764-1.06s1.463.437 1.764 1.06h.402c-.333-.77-1.175-1.323-2.166-1.323s-1.833.552-2.166 1.323h.402zm.938 5.652c-.575-1.838-2.595-3.678-2.595-3.678H23.58s-2.02 1.84-2.595 3.678c-.143.457-.54.85-1.018.85H5.178c-.478.001-.874-.394-1.017-.85h0z" fill="#000"/></g><defs><clipPath id="A"><path fill="#fff" transform="matrix(-1 0 0 1 25 0)" d="M0 0h25v25H0z"/></clipPath></defs></svg>